<?xml version="1.0" encoding="utf-8"?>
<!-- Generator: Adobe Illustrator 27.5.0, SVG Export Plug-In . SVG Version: 6.00 Build 0)  -->
<svg version="1.1" xmlns="http://www.w3.org/2000/svg" xmlns:xlink="http://www.w3.org/1999/xlink" x="0px" y="0px"
	 viewBox="0 0 800 500" style="enable-background:new 0 0 800 500;" xml:space="preserve">
<g id="_x36_5">
	<g>
		<rect style="fill:#F1E7FF;" width="800" height="500"/>
		
			<linearGradient id="SVGID_1_" gradientUnits="userSpaceOnUse" x1="8400" y1="392.5" x2="8400" y2="104.5" gradientTransform="matrix(-1 0 0 1 8800 0)">
			<stop  offset="0" style="stop-color:#3F0D6C"/>
			<stop  offset="1" style="stop-color:#14053E"/>
		</linearGradient>
		<path style="fill:url(#SVGID_1_);" d="M800,104.5l-44.5,1.801c-44.5,1.899-133.5,5.5-222.299,26
			c-88.9,20.5-177.5,57.899-266.4,67.399C178,209.2,89,190.801,44.5,181.7L0,172.5v220h44.5c44.5,0,133.5,0,222.301,0
			c88.9,0,177.5,0,266.4,0c88.799,0,177.799,0,222.299,0H800V104.5z"/>
		<g>
			<g>
				<path style="opacity:0.74;fill:#F1E7FF;" d="M307.573,428.734c0,1.213,0.982,2.196,2.197,2.196c1.213,0,2.195-0.983,2.195-2.196
					s-0.982-2.195-2.195-2.195C308.556,426.539,307.573,427.522,307.573,428.734z"/>
				<path style="opacity:0.58;fill:#F1E7FF;" d="M376.368,404.925c0.51-0.246,0.92-0.656,1.166-1.165
					c0.449-0.93,0.76-1.986,0.895-3.123c0.135,1.137,0.445,2.194,0.895,3.124c0.248,0.511,0.656,0.92,1.166,1.166
					c0.93,0.45,1.986,0.761,3.123,0.896c-1.135,0.133-2.193,0.442-3.123,0.893c-0.508,0.247-0.92,0.657-1.166,1.166
					c-0.449,0.93-0.76,1.988-0.895,3.123c-0.135-1.133-0.445-2.191-0.895-3.122c-0.246-0.507-0.656-0.919-1.166-1.165
					c-0.93-0.449-1.988-0.762-3.123-0.895C374.38,405.688,375.438,405.375,376.368,404.925z"/>
				<path style="opacity:0.63;fill:#F1E7FF;" d="M430.565,406.377c0,0.642,0.521,1.163,1.164,1.163c0.643,0,1.164-0.521,1.164-1.163
					c0-0.644-0.522-1.164-1.164-1.164C431.086,405.213,430.565,405.733,430.565,406.377z"/>
				<path style="opacity:0.85;fill:#F1E7FF;" d="M509.626,417.497c0,1.922,1.559,3.479,3.48,3.479c1.923,0,3.482-1.558,3.482-3.479
					c0-1.923-1.559-3.482-3.482-3.482C511.185,414.016,509.626,415.574,509.626,417.497z"/>
				<path style="opacity:0.78;fill:#F1E7FF;" d="M714.512,411.941c0.498-0.241,0.9-0.643,1.143-1.141
					c0.44-0.911,0.745-1.948,0.876-3.063c0.132,1.114,0.438,2.151,0.879,3.063c0.241,0.499,0.642,0.899,1.142,1.143
					c0.911,0.44,1.948,0.745,3.062,0.878c-1.112,0.128-2.15,0.434-3.062,0.875c-0.497,0.242-0.901,0.643-1.142,1.141
					c-0.441,0.913-0.747,1.951-0.879,3.064c-0.131-1.111-0.436-2.149-0.876-3.061c-0.242-0.5-0.644-0.9-1.143-1.143
					c-0.912-0.44-1.949-0.749-3.063-0.877C712.563,412.69,713.6,412.384,714.512,411.941z"/>
				<path style="opacity:0.91;fill:#F1E7FF;" d="M310.681,303.632c0,0.711,0.576,1.288,1.289,1.288c0.711,0,1.287-0.577,1.287-1.288
					c0-0.712-0.576-1.289-1.287-1.289C311.257,302.343,310.681,302.92,310.681,303.632z"/>
				<path style="opacity:0.98;fill:#F1E7FF;" d="M355.739,326.631c0,0.6,0.486,1.086,1.088,1.086c0.598,0,1.084-0.486,1.084-1.086
					c0-0.6-0.486-1.086-1.084-1.086C356.226,325.545,355.739,326.031,355.739,326.631z"/>
				<path style="opacity:0.58;fill:#F1E7FF;" d="M387.794,329.99c0,1.24,1.006,2.248,2.248,2.248c1.24,0,2.246-1.008,2.246-2.248
					c0-1.241-1.006-2.248-2.246-2.248C388.8,327.742,387.794,328.749,387.794,329.99z"/>
				<path style="opacity:0.61;fill:#F1E7FF;" d="M454.52,381.99c0,1.206,0.978,2.183,2.186,2.183c1.206,0,2.184-0.977,2.184-2.183
					c0-1.207-0.978-2.185-2.184-2.185C455.498,379.806,454.52,380.783,454.52,381.99z"/>
				<path style="opacity:0.65;fill:#F1E7FF;" d="M504.388,326.991c0,2.147,1.742,3.891,3.891,3.891c2.148,0,3.891-1.743,3.891-3.891
					c0-2.149-1.742-3.893-3.891-3.893C506.13,323.099,504.388,324.842,504.388,326.991z"/>
				<path style="opacity:0.65;fill:#F1E7FF;" d="M590.179,348.751c0,1.896,1.537,3.434,3.436,3.434c1.896,0,3.435-1.538,3.435-3.434
					c0-1.898-1.538-3.435-3.435-3.435C591.716,345.316,590.179,346.853,590.179,348.751z"/>
				<path style="opacity:0.84;fill:#F1E7FF;" d="M641.232,350.752c0,1.92,1.557,3.476,3.478,3.476c1.919,0,3.475-1.557,3.475-3.476
					c0-1.921-1.557-3.478-3.475-3.478C642.789,347.274,641.232,348.831,641.232,350.752z"/>
				<path style="opacity:0.85;fill:#F1E7FF;" d="M705.881,338.99c0,1.193,0.969,2.162,2.163,2.162c1.193,0,2.162-0.969,2.162-2.162
					c0-1.194-0.969-2.162-2.162-2.162C706.85,336.828,705.881,337.796,705.881,338.99z"/>
				<path style="opacity:0.94;fill:#F1E7FF;" d="M715.322,342.99c0,1.267,1.027,2.293,2.294,2.293s2.294-1.026,2.294-2.293
					c0-1.268-1.027-2.294-2.294-2.294S715.322,341.723,715.322,342.99z"/>
				<path style="opacity:0.86;fill:#F1E7FF;" d="M354.192,367.806c0,1.921,1.559,3.479,3.48,3.479c1.922,0,3.477-1.558,3.477-3.479
					c0-1.922-1.555-3.479-3.477-3.479C355.751,364.326,354.192,365.884,354.192,367.806z"/>
				<path style="opacity:0.83;fill:#F1E7FF;" d="M369.345,336.685c0,0.721,0.582,1.303,1.303,1.303c0.719,0,1.301-0.582,1.301-1.303
					c0-0.72-0.582-1.303-1.301-1.303C369.927,335.383,369.345,335.966,369.345,336.685z"/>
				<path style="opacity:0.85;fill:#F1E7FF;" d="M421.848,332.043c0,1.112,0.901,2.014,2.014,2.014c1.111,0,2.012-0.901,2.012-2.014
					c0-1.111-0.9-2.013-2.012-2.013C422.749,330.03,421.848,330.932,421.848,332.043z"/>
				<path style="opacity:0.91;fill:#F1E7FF;" d="M449.304,352.223c0.516-0.249,0.931-0.664,1.18-1.179
					c0.455-0.941,0.77-2.012,0.905-3.163c0.137,1.152,0.452,2.223,0.907,3.164c0.25,0.517,0.663,0.93,1.179,1.18
					c0.942,0.455,2.012,0.77,3.161,0.905c-1.147,0.135-2.219,0.449-3.161,0.905c-0.513,0.25-0.931,0.664-1.179,1.178
					c-0.455,0.943-0.771,2.015-0.907,3.165c-0.136-1.149-0.45-2.22-0.905-3.162c-0.249-0.515-0.664-0.931-1.18-1.18
					c-0.94-0.454-2.013-0.772-3.162-0.906C447.291,352.994,448.363,352.678,449.304,352.223z"/>
				<path style="opacity:0.68;fill:#F1E7FF;" d="M477.428,339.685c0,0.696,0.564,1.262,1.261,1.262c0.697,0,1.263-0.565,1.263-1.262
					c0-0.697-0.565-1.263-1.263-1.263C477.992,338.423,477.428,338.988,477.428,339.685z"/>
				<path style="opacity:0.83;fill:#F1E7FF;" d="M543.446,387.685c0,0.607,0.492,1.1,1.099,1.1c0.607,0,1.1-0.492,1.1-1.1
					c0-0.607-0.492-1.099-1.1-1.099C543.938,386.586,543.446,387.078,543.446,387.685z"/>
				<path style="opacity:0.59;fill:#F1E7FF;" d="M574.211,324.685c0,0.658,0.533,1.191,1.191,1.191c0.659,0,1.192-0.533,1.192-1.191
					c0-0.657-0.533-1.19-1.192-1.19C574.744,323.494,574.211,324.027,574.211,324.685z"/>
				<path style="opacity:0.59;fill:#F1E7FF;" d="M664.182,339.685c0,0.594,0.483,1.077,1.077,1.077c0.595,0,1.078-0.483,1.078-1.077
					c0-0.595-0.483-1.078-1.078-1.078C664.664,338.607,664.182,339.091,664.182,339.685z"/>
				<path style="opacity:0.73;fill:#F1E7FF;" d="M700.982,349.685c0,0.627,0.509,1.135,1.134,1.135c0.626,0,1.134-0.508,1.134-1.135
					c0-0.626-0.508-1.134-1.134-1.134C701.491,348.551,700.982,349.059,700.982,349.685z"/>
				<path style="opacity:0.76;fill:#F1E7FF;" d="M773.753,342.685c0,0.675,0.548,1.222,1.221,1.222c0.674,0,1.221-0.547,1.221-1.222
					s-0.547-1.22-1.221-1.22C774.301,341.465,773.753,342.01,773.753,342.685z"/>
				<path style="opacity:0.96;fill:#F1E7FF;" d="M379.233,288.298c0,1.417,1.15,2.567,2.566,2.567c1.416,0,2.566-1.15,2.566-2.567
					c0-1.417-1.15-2.566-2.566-2.566C380.384,285.732,379.233,286.881,379.233,288.298z"/>
				<path style="opacity:0.96;fill:#F1E7FF;" d="M415.383,273.481c0.513-0.248,0.926-0.661,1.175-1.173
					c0.452-0.936,0.765-2.002,0.9-3.148c0.136,1.146,0.45,2.213,0.902,3.15c0.249,0.513,0.661,0.925,1.174,1.174
					c0.938,0.453,2.002,0.766,3.146,0.901c-1.143,0.134-2.209,0.446-3.146,0.9c-0.511,0.248-0.927,0.661-1.174,1.173
					c-0.452,0.938-0.767,2.004-0.902,3.148c-0.136-1.145-0.448-2.209-0.9-3.145c-0.249-0.514-0.662-0.926-1.175-1.175
					c-0.937-0.452-2.003-0.768-3.147-0.901C413.38,274.25,414.446,273.935,415.383,273.481z"/>
				<path style="opacity:0.61;fill:#F1E7FF;" d="M428.865,290.941c0,0.543,0.44,0.982,0.982,0.982c0.544,0,0.984-0.439,0.984-0.982
					c0-0.544-0.44-0.982-0.984-0.982C429.306,289.959,428.865,290.397,428.865,290.941z"/>
				<path style="opacity:0.98;fill:#F1E7FF;" d="M506.268,277.061c0,1.962,1.593,3.555,3.557,3.555c1.964,0,3.557-1.593,3.557-3.555
					c0-1.964-1.593-3.558-3.557-3.558C507.86,273.504,506.268,275.098,506.268,277.061z"/>
				<path style="opacity:0.77;fill:#F1E7FF;" d="M575.619,273.941c0,0.651,0.53,1.18,1.182,1.18c0.652,0,1.182-0.528,1.182-1.18
					c0-0.654-0.529-1.182-1.182-1.182C576.149,272.76,575.619,273.287,575.619,273.941z"/>
				<path style="opacity:0.72;fill:#F1E7FF;" d="M624.384,306.941c0,0.703,0.57,1.273,1.273,1.273c0.705,0,1.275-0.57,1.275-1.273
					c0-0.705-0.57-1.275-1.275-1.275C624.954,305.666,624.384,306.236,624.384,306.941z"/>
				<path style="opacity:0.8;fill:#F1E7FF;" d="M678.462,289.3c0,1.329,1.079,2.408,2.41,2.408s2.41-1.079,2.41-2.408
					c0-1.331-1.079-2.41-2.41-2.41S678.462,287.969,678.462,289.3z"/>
				<path style="opacity:0.83;fill:#F1E7FF;" d="M751.015,294.291c0.621-0.303,1.122-0.803,1.423-1.423
					c0.549-1.136,0.929-2.427,1.093-3.817c0.165,1.391,0.545,2.684,1.095,3.82c0.302,0.621,0.801,1.119,1.423,1.423
					c1.137,0.548,2.428,0.928,3.815,1.092c-1.386,0.162-2.679,0.542-3.815,1.092c-0.619,0.302-1.123,0.802-1.423,1.422
					c-0.55,1.138-0.93,2.43-1.095,3.817c-0.164-1.386-0.544-2.678-1.093-3.813c-0.301-0.623-0.802-1.124-1.423-1.425
					c-1.136-0.548-2.429-0.932-3.816-1.094C748.586,295.222,749.879,294.84,751.015,294.291z"/>
				<path style="opacity:0.67;fill:#F1E7FF;" d="M342.606,230.317c0,1.896,1.539,3.437,3.439,3.437c1.898,0,3.438-1.541,3.438-3.437
					c0-1.901-1.539-3.44-3.438-3.44C344.145,226.877,342.606,228.416,342.606,230.317z"/>
				<path style="opacity:0.76;fill:#F1E7FF;" d="M332.003,210.196c0,0.562,0.457,1.017,1.018,1.017c0.563,0,1.02-0.455,1.02-1.017
					c0-0.563-0.457-1.018-1.02-1.018C332.46,209.178,332.003,209.633,332.003,210.196z"/>
				<path style="opacity:0.69;fill:#F1E7FF;" d="M423.395,197.317c0,1.988,1.613,3.601,3.603,3.601c1.988,0,3.602-1.613,3.602-3.601
					c0-1.991-1.613-3.604-3.602-3.604C425.008,193.712,423.395,195.326,423.395,197.317z"/>
				<path style="opacity:0.72;fill:#F1E7FF;" d="M448.26,221.314c0,1.809,1.466,3.275,3.274,3.275c1.809,0,3.274-1.467,3.274-3.275
					c0-1.809-1.466-3.273-3.274-3.273C449.726,218.041,448.26,219.505,448.26,221.314z"/>
				<path style="opacity:0.74;fill:#F1E7FF;" d="M503.847,212.723c0.521-0.252,0.94-0.671,1.192-1.191
					c0.46-0.951,0.778-2.033,0.915-3.197c0.138,1.165,0.457,2.249,0.917,3.2c0.253,0.521,0.671,0.939,1.191,1.192
					c0.952,0.46,2.034,0.778,3.196,0.915c-1.161,0.137-2.244,0.453-3.196,0.916c-0.519,0.252-0.94,0.67-1.191,1.191
					c-0.46,0.952-0.779,2.035-0.917,3.199c-0.137-1.163-0.455-2.245-0.915-3.195c-0.252-0.521-0.671-0.942-1.192-1.193
					c-0.951-0.46-2.034-0.78-3.197-0.917C501.813,213.504,502.896,213.184,503.847,212.723z"/>
				<path style="opacity:0.92;fill:#F1E7FF;" d="M651.967,181.553c0,1.227,0.994,2.221,2.221,2.221c1.226,0,2.22-0.994,2.22-2.221
					c0-1.227-0.994-2.22-2.22-2.22C652.961,179.333,651.967,180.326,651.967,181.553z"/>
				<path style="opacity:0.52;fill:#F1E7FF;" d="M690.348,192.196c0,0.581,0.472,1.053,1.054,1.053c0.582,0,1.054-0.472,1.054-1.053
					c0-0.582-0.472-1.054-1.054-1.054C690.819,191.142,690.348,191.614,690.348,192.196z"/>
				<path style="opacity:0.56;fill:#F1E7FF;" d="M767.677,261.555c0,1.07,0.868,1.939,1.939,1.939s1.94-0.868,1.94-1.939
					c0-1.072-0.868-1.94-1.94-1.94S767.677,260.482,767.677,261.555z"/>
				<path style="opacity:0.94;fill:#F1E7FF;" d="M303.757,169.74c0,1.729,1.404,3.133,3.135,3.133s3.131-1.403,3.131-3.133
					c0-1.73-1.4-3.133-3.131-3.133S303.757,168.01,303.757,169.74z"/>
				<path style="opacity:0.66;fill:#F1E7FF;" d="M381.077,111.979c0,1.186,0.961,2.148,2.148,2.148c1.184,0,2.146-0.962,2.146-2.148
					c0-1.186-0.963-2.148-2.146-2.148C382.038,109.831,381.077,110.793,381.077,111.979z"/>
				<path style="opacity:0.63;fill:#F1E7FF;" d="M406.095,190.621c0,0.742,0.601,1.343,1.343,1.343s1.343-0.601,1.343-1.343
					c0-0.741-0.601-1.343-1.343-1.343S406.095,189.879,406.095,190.621z"/>
				<path style="opacity:0.54;fill:#F1E7FF;" d="M480.634,136.621c0,0.609,0.494,1.102,1.102,1.102c0.609,0,1.103-0.492,1.103-1.102
					c0-0.609-0.494-1.104-1.103-1.104C481.128,135.518,480.634,136.012,480.634,136.621z"/>
				<path style="opacity:0.79;fill:#F1E7FF;" d="M512.989,170.979c0,1.084,0.878,1.962,1.961,1.962s1.962-0.878,1.962-1.962
					c0-1.082-0.879-1.961-1.962-1.961S512.989,169.897,512.989,170.979z"/>
				<path style="opacity:0.61;fill:#F1E7FF;" d="M574.863,213.621c0,0.719,0.583,1.3,1.301,1.3c0.72,0,1.303-0.582,1.303-1.3
					c0-0.719-0.583-1.303-1.303-1.303C575.446,212.318,574.863,212.902,574.863,213.621z"/>
				<path style="opacity:0.53;fill:#F1E7FF;" d="M645.047,168.742c0,1.708,1.385,3.094,3.095,3.094c1.708,0,3.094-1.386,3.094-3.094
					c0-1.71-1.386-3.095-3.094-3.095C646.432,165.646,645.047,167.032,645.047,168.742z"/>
				<path style="opacity:0.86;fill:#F1E7FF;" d="M715.83,161.621c0,0.71,0.576,1.286,1.286,1.286c0.711,0,1.287-0.576,1.287-1.286
					c0-0.711-0.576-1.287-1.287-1.287C716.406,160.334,715.83,160.91,715.83,161.621z"/>
				<path style="opacity:0.62;fill:#F1E7FF;" d="M726.726,183.621c0,0.689,0.56,1.248,1.248,1.248c0.69,0,1.249-0.559,1.249-1.248
					c0-0.689-0.56-1.248-1.249-1.248C727.285,182.373,726.726,182.932,726.726,183.621z"/>
				<path style="opacity:0.6;fill:#F1E7FF;" d="M281.72,131.171c0,1.159,0.938,2.098,2.098,2.098c1.16,0,2.1-0.939,2.1-2.098
					s-0.94-2.099-2.1-2.099C282.657,129.072,281.72,130.012,281.72,131.171z"/>
				<path style="opacity:0.54;fill:#F1E7FF;" d="M345.88,106.128c0.643-0.311,1.158-0.827,1.469-1.468
					c0.566-1.171,0.957-2.503,1.127-3.936c0.17,1.434,0.563,2.767,1.129,3.938c0.311,0.642,0.826,1.157,1.469,1.468
					c1.172,0.567,2.504,0.959,3.936,1.127c-1.43,0.168-2.764,0.56-3.936,1.127c-0.639,0.311-1.16,0.826-1.469,1.467
					c-0.566,1.174-0.959,2.507-1.129,3.939c-0.17-1.43-0.561-2.763-1.127-3.935c-0.31-0.643-0.826-1.158-1.469-1.469
					c-1.172-0.566-2.506-0.961-3.936-1.129C343.374,107.09,344.708,106.696,345.88,106.128z"/>
				<path style="opacity:0.59;fill:#F1E7FF;" d="M381.86,128.171c0,1.255,1.017,2.273,2.273,2.273c1.256,0,2.273-1.018,2.273-2.273
					s-1.018-2.274-2.273-2.274C382.878,125.897,381.86,126.916,381.86,128.171z"/>
				<path style="opacity:0.66;fill:#F1E7FF;" d="M457.048,89.307c0.539-0.261,0.974-0.695,1.235-1.234
					c0.477-0.985,0.807-2.107,0.948-3.313c0.144,1.206,0.474,2.328,0.95,3.314c0.262,0.541,0.694,0.972,1.234,1.235
					c0.986,0.478,2.107,0.807,3.313,0.948c-1.203,0.141-2.326,0.471-3.313,0.949c-0.537,0.26-0.975,0.694-1.234,1.232
					c-0.477,0.988-0.807,2.109-0.95,3.314c-0.142-1.203-0.472-2.324-0.948-3.311c-0.262-0.541-0.696-0.975-1.235-1.236
					c-0.985-0.476-2.108-0.809-3.313-0.949C454.94,90.116,456.063,89.785,457.048,89.307z"/>
				<path style="opacity:0.8;fill:#F1E7FF;" d="M508.592,144.221c0.59-0.285,1.064-0.76,1.35-1.348
					c0.52-1.077,0.879-2.299,1.034-3.615c0.156,1.316,0.517,2.541,1.037,3.617c0.285,0.59,0.759,1.063,1.348,1.348
					c1.077,0.521,2.3,0.881,3.615,1.036c-1.313,0.154-2.538,0.513-3.615,1.034c-0.587,0.286-1.065,0.76-1.348,1.348
					c-0.521,1.078-0.881,2.302-1.037,3.616c-0.155-1.313-0.515-2.536-1.034-3.612c-0.286-0.59-0.76-1.064-1.35-1.349
					c-1.075-0.52-2.301-0.883-3.615-1.037C506.291,145.104,507.517,144.742,508.592,144.221z"/>
				<path style="opacity:0.7;fill:#F1E7FF;" d="M608.248,131.813c0,0.567,0.461,1.029,1.028,1.029c0.567,0,1.028-0.461,1.028-1.029
					c0-0.566-0.461-1.028-1.028-1.028C608.709,130.785,608.248,131.247,608.248,131.813z"/>
				<path style="opacity:0.64;fill:#F1E7FF;" d="M601.244,119.242c0.577-0.28,1.041-0.743,1.32-1.318
					c0.509-1.053,0.861-2.25,1.013-3.539c0.153,1.289,0.506,2.487,1.015,3.541c0.28,0.577,0.743,1.039,1.319,1.319
					c1.054,0.509,2.251,0.861,3.538,1.013c-1.285,0.15-2.484,0.502-3.538,1.014c-0.574,0.278-1.041,0.742-1.319,1.318
					c-0.509,1.055-0.861,2.252-1.015,3.54c-0.151-1.286-0.504-2.484-1.013-3.537c-0.279-0.577-0.743-1.041-1.32-1.32
					c-1.053-0.509-2.252-0.865-3.538-1.015C598.992,120.106,600.191,119.752,601.244,119.242z"/>
				<path style="opacity:0.8;fill:#F1E7FF;" d="M660.756,110.933c0,1.79,1.451,3.241,3.242,3.241c1.79,0,3.241-1.451,3.241-3.241
					c0-1.79-1.451-3.241-3.241-3.241C662.207,107.691,660.756,109.143,660.756,110.933z"/>
				<path style="opacity:0.53;fill:#F1E7FF;" d="M748.829,94.813c0,0.631,0.514,1.144,1.144,1.144c0.631,0,1.145-0.513,1.145-1.144
					c0-0.632-0.514-1.145-1.145-1.145C749.343,93.669,748.829,94.182,748.829,94.813z"/>
				<path style="opacity:0.51;fill:#F1E7FF;" d="M306.706,76.068c0,0.674,0.547,1.221,1.221,1.221c0.676,0,1.223-0.547,1.223-1.221
					c0-0.675-0.547-1.222-1.223-1.222C307.253,74.846,306.706,75.394,306.706,76.068z"/>
				<path style="opacity:0.86;fill:#F1E7FF;" d="M377.259,66.654c0.486-0.234,0.877-0.627,1.113-1.113
					c0.43-0.89,0.729-1.9,0.855-2.988c0.129,1.088,0.428,2.1,0.858,2.99c0.236,0.487,0.627,0.878,1.113,1.113
					c0.891,0.431,1.902,0.729,2.988,0.856c-1.086,0.128-2.098,0.425-2.988,0.855c-0.484,0.235-0.879,0.628-1.113,1.114
					c-0.43,0.89-0.729,1.902-0.858,2.99c-0.127-1.087-0.426-2.099-0.855-2.988c-0.236-0.487-0.627-0.879-1.113-1.115
					c-0.891-0.43-1.904-0.729-2.99-0.856C375.354,67.385,376.368,67.086,377.259,66.654z"/>
				<path style="opacity:0.61;fill:#F1E7FF;" d="M414.63,47.427c0,1.245,1.01,2.255,2.256,2.255c1.245,0,2.256-1.01,2.256-2.255
					c0-1.246-1.011-2.257-2.256-2.257C415.64,45.17,414.63,46.181,414.63,47.427z"/>
				<path style="opacity:0.81;fill:#F1E7FF;" d="M636.532,55.426c0,1.178,0.954,2.133,2.132,2.133c1.178,0,2.133-0.955,2.133-2.133
					c0-1.177-0.955-2.133-2.133-2.133C637.486,53.293,636.532,54.249,636.532,55.426z"/>
				<path style="opacity:0.7;fill:#F1E7FF;" d="M142.53,405.497c0,1.922,1.559,3.479,3.48,3.479c1.922,0,3.48-1.558,3.48-3.479
					c0-1.923-1.559-3.482-3.48-3.482C144.089,402.016,142.53,403.574,142.53,405.497z"/>
				<path style="opacity:0.61;fill:#F1E7FF;" d="M175.909,383.734c0,1.346,1.09,2.435,2.436,2.435c1.346,0,2.436-1.09,2.436-2.435
					c0-1.345-1.09-2.436-2.436-2.436C176.999,381.299,175.909,382.39,175.909,383.734z"/>
				<path style="opacity:0.8;fill:#F1E7FF;" d="M106.292,339.991c0,2.147,1.742,3.891,3.891,3.891c2.149,0,3.891-1.743,3.891-3.891
					c0-2.149-1.742-3.893-3.891-3.893C108.034,336.099,106.292,337.842,106.292,339.991z"/>
				<path style="opacity:0.91;fill:#F1E7FF;" d="M157.083,389.751c0,1.896,1.537,3.434,3.436,3.434c1.896,0,3.434-1.538,3.434-3.434
					c0-1.898-1.537-3.435-3.434-3.435C158.62,386.316,157.083,387.853,157.083,389.751z"/>
				<path style="opacity:0.99;fill:#F1E7FF;" d="M266.136,358.752c0,1.92,1.557,3.476,3.479,3.476c1.918,0,3.475-1.557,3.475-3.476
					c0-1.921-1.557-3.478-3.475-3.478C267.692,355.274,266.136,356.831,266.136,358.752z"/>
				<path style="opacity:0.53;fill:#F1E7FF;" d="M122.351,364.685c0,0.607,0.492,1.1,1.098,1.1c0.607,0,1.1-0.492,1.1-1.1
					c0-0.607-0.492-1.099-1.1-1.099C122.843,363.586,122.351,364.078,122.351,364.685z"/>
				<path style="opacity:0.74;fill:#F1E7FF;" d="M215.114,342.685c0,0.658,0.533,1.191,1.191,1.191s1.191-0.533,1.191-1.191
					c0-0.657-0.533-1.19-1.191-1.19S215.114,342.027,215.114,342.685z"/>
				<path style="opacity:0.7;fill:#F1E7FF;" d="M103.171,291.061c0,1.962,1.594,3.555,3.557,3.555c1.965,0,3.557-1.593,3.557-3.555
					c0-1.964-1.592-3.558-3.557-3.558C104.765,287.504,103.171,289.098,103.171,291.061z"/>
				<path style="opacity:0.69;fill:#F1E7FF;" d="M176.522,278.941c0,0.651,0.531,1.18,1.182,1.18c0.652,0,1.182-0.528,1.182-1.18
					c0-0.654-0.529-1.182-1.182-1.182C177.054,277.76,176.522,278.287,176.522,278.941z"/>
				<path style="opacity:0.55;fill:#F1E7FF;" d="M242.288,275.941c0,0.703,0.57,1.273,1.273,1.273c0.705,0,1.275-0.57,1.275-1.273
					c0-0.705-0.57-1.275-1.275-1.275C242.858,274.666,242.288,275.236,242.288,275.941z"/>
				<path style="opacity:0.82;fill:#F1E7FF;" d="M119.751,193.723c0.521-0.252,0.939-0.671,1.191-1.191
					c0.461-0.951,0.779-2.033,0.916-3.197c0.137,1.165,0.457,2.249,0.916,3.2c0.254,0.521,0.672,0.939,1.191,1.192
					c0.953,0.46,2.035,0.778,3.197,0.915c-1.162,0.137-2.244,0.453-3.197,0.916c-0.518,0.252-0.939,0.67-1.191,1.191
					c-0.459,0.952-0.779,2.035-0.916,3.199c-0.137-1.163-0.455-2.245-0.916-3.195c-0.252-0.521-0.67-0.942-1.191-1.193
					c-0.951-0.46-2.035-0.78-3.197-0.917C117.716,194.504,118.8,194.184,119.751,193.723z"/>
				<path style="opacity:0.76;fill:#F1E7FF;" d="M223.87,205.553c0,1.227,0.994,2.221,2.221,2.221c1.227,0,2.221-0.994,2.221-2.221
					c0-1.227-0.994-2.22-2.221-2.22C224.864,203.333,223.87,204.326,223.87,205.553z"/>
				<path style="opacity:0.64;fill:#F1E7FF;" d="M144.894,172.979c0,1.084,0.877,1.962,1.961,1.962c1.082,0,1.961-0.878,1.961-1.962
					c0-1.082-0.879-1.961-1.961-1.961C145.77,171.018,144.894,171.897,144.894,172.979z"/>
				<path style="opacity:0.86;fill:#F1E7FF;" d="M185.767,178.621c0,0.719,0.584,1.3,1.301,1.3c0.721,0,1.303-0.582,1.303-1.3
					c0-0.719-0.582-1.303-1.303-1.303C186.351,177.318,185.767,177.902,185.767,178.621z"/>
				<path style="opacity:0.98;fill:#F1E7FF;" d="M255.95,195.742c0,1.708,1.385,3.094,3.096,3.094c1.707,0,3.094-1.386,3.094-3.094
					c0-1.71-1.387-3.095-3.094-3.095C257.335,192.646,255.95,194.032,255.95,195.742z"/>
				<path style="opacity:0.86;fill:#F1E7FF;" d="M109.495,131.221c0.59-0.285,1.065-0.76,1.35-1.348
					c0.52-1.077,0.879-2.299,1.035-3.615c0.156,1.316,0.516,2.541,1.037,3.617c0.285,0.59,0.758,1.063,1.348,1.348
					c1.076,0.521,2.299,0.881,3.615,1.036c-1.314,0.154-2.539,0.513-3.615,1.034c-0.588,0.286-1.064,0.76-1.348,1.348
					c-0.522,1.078-0.881,2.302-1.037,3.616c-0.156-1.313-0.516-2.536-1.035-3.612c-0.285-0.59-0.76-1.064-1.35-1.349
					c-1.074-0.52-2.301-0.883-3.615-1.037C107.194,132.104,108.421,131.742,109.495,131.221z"/>
				<path style="opacity:0.79;fill:#F1E7FF;" d="M198.151,137.813c0,0.567,0.461,1.029,1.029,1.029c0.566,0,1.027-0.461,1.027-1.029
					c0-0.566-0.461-1.028-1.027-1.028C198.612,136.785,198.151,137.247,198.151,137.813z"/>
				<path style="opacity:0.9;fill:#F1E7FF;" d="M236.147,136.242c0.578-0.28,1.041-0.743,1.32-1.318
					c0.51-1.053,0.861-2.25,1.014-3.539c0.152,1.289,0.506,2.487,1.014,3.541c0.281,0.577,0.744,1.039,1.32,1.319
					c1.053,0.509,2.25,0.861,3.537,1.013c-1.285,0.15-2.484,0.502-3.537,1.014c-0.574,0.278-1.041,0.742-1.32,1.318
					c-0.508,1.055-0.861,2.252-1.014,3.54c-0.152-1.286-0.504-2.484-1.014-3.537c-0.279-0.577-0.742-1.041-1.32-1.32
					c-1.053-0.509-2.252-0.865-3.537-1.015C233.895,137.106,235.095,136.752,236.147,136.242z"/>
				<path style="opacity:0.9;fill:#F1E7FF;" d="M749.576,65.189c0,2.362,1.916,4.278,4.278,4.278c2.363,0,4.279-1.916,4.279-4.278
					c0-2.363-1.916-4.281-4.279-4.281C751.492,60.908,749.576,62.826,749.576,65.189z"/>
				<path style="opacity:0.53;fill:#F1E7FF;" d="M60.915,398.377c0,0.593,0.48,1.076,1.074,1.076c0.596,0,1.076-0.483,1.076-1.076
					c0-0.594-0.48-1.076-1.076-1.076C61.395,397.301,60.915,397.783,60.915,398.377z"/>
				<path style="opacity:0.78;fill:#F1E7FF;" d="M126.27,423.941c0.5-0.241,0.9-0.643,1.143-1.141
					c0.441-0.911,0.746-1.948,0.877-3.063c0.133,1.114,0.437,2.151,0.879,3.063c0.242,0.499,0.643,0.899,1.141,1.143
					c0.912,0.44,1.949,0.745,3.063,0.878c-1.111,0.128-2.15,0.434-3.063,0.875c-0.496,0.242-0.9,0.643-1.141,1.141
					c-0.441,0.913-0.746,1.951-0.879,3.064c-0.131-1.111-0.436-2.149-0.877-3.061c-0.242-0.5-0.643-0.9-1.143-1.143
					c-0.91-0.44-1.949-0.749-3.062-0.877C124.321,424.69,125.36,424.384,126.27,423.941z"/>
				<path style="opacity:0.81;fill:#F1E7FF;" d="M24.993,362.752c0,1.92,1.557,3.476,3.476,3.476s3.477-1.557,3.477-3.476
					c0-1.921-1.557-3.478-3.477-3.478S24.993,360.831,24.993,362.752z"/>
				<circle style="opacity:0.86;fill:#F1E7FF;" cx="94.804" cy="358.99" r="2.162"/>
				<path style="opacity:0.98;fill:#F1E7FF;" d="M134.083,334.99c0,1.267,1.025,2.293,2.293,2.293c1.268,0,2.293-1.026,2.293-2.293
					c0-1.268-1.025-2.294-2.293-2.294C135.108,332.696,134.083,333.723,134.083,334.99z"/>
				<path style="opacity:0.54;fill:#F1E7FF;" d="M84.94,372.685c0,0.594,0.484,1.077,1.078,1.077c0.596,0,1.078-0.483,1.078-1.077
					c0-0.595-0.482-1.078-1.078-1.078C85.425,371.607,84.94,372.091,84.94,372.685z"/>
				<path style="opacity:0.52;fill:#F1E7FF;" d="M93.743,325.685c0,0.627,0.508,1.135,1.133,1.135s1.135-0.508,1.135-1.135
					c0-0.626-0.51-1.134-1.135-1.134S93.743,325.059,93.743,325.685z"/>
				<path style="opacity:0.53;fill:#F1E7FF;" d="M111.222,259.3c0,1.329,1.08,2.408,2.41,2.408c1.33,0,2.41-1.079,2.41-2.408
					c0-1.331-1.08-2.41-2.41-2.41C112.302,256.89,111.222,257.969,111.222,259.3z"/>
				<path style="opacity:0.56;fill:#F1E7FF;" d="M80.108,191.196c0,0.581,0.471,1.053,1.053,1.053c0.582,0,1.055-0.472,1.055-1.053
					c0-0.582-0.473-1.054-1.055-1.054C80.579,190.142,80.108,190.614,80.108,191.196z"/>
				<path style="opacity:0.84;fill:#F1E7FF;" d="M23.806,175.742c0,1.708,1.387,3.094,3.096,3.094s3.094-1.386,3.094-3.094
					c0-1.71-1.385-3.095-3.094-3.095S23.806,174.032,23.806,175.742z"/>
				<path style="opacity:0.93;fill:#F1E7FF;" d="M122.591,136.621c0,0.71,0.576,1.286,1.285,1.286c0.711,0,1.287-0.576,1.287-1.286
					c0-0.711-0.576-1.287-1.287-1.287C123.167,135.334,122.591,135.91,122.591,136.621z"/>
				<path style="opacity:0.55;fill:#F1E7FF;" d="M94.485,171.621c0,0.689,0.559,1.248,1.248,1.248s1.248-0.559,1.248-1.248
					c0-0.689-0.559-1.248-1.248-1.248S94.485,170.932,94.485,171.621z"/>
				<circle style="opacity:0.74;fill:#F1E7FF;" cx="72.757" cy="119.933" r="3.242"/>
				<path style="opacity:0.98;fill:#F1E7FF;" d="M117.589,63.813c0,0.631,0.514,1.144,1.145,1.144s1.145-0.513,1.145-1.144
					c0-0.632-0.514-1.145-1.145-1.145S117.589,63.182,117.589,63.813z"/>
				<path style="opacity:0.63;fill:#F1E7FF;" d="M116.335,58.189c0,2.362,1.916,4.278,4.279,4.278c2.363,0,4.279-1.916,4.279-4.278
					c0-2.363-1.916-4.281-4.279-4.281C118.251,53.908,116.335,55.826,116.335,58.189z"/>
			</g>
		</g>
		
			<linearGradient id="SVGID_00000147200164801091502310000000338585639980671875_" gradientUnits="userSpaceOnUse" x1="8400" y1="392.5" x2="8400" y2="208.5" gradientTransform="matrix(-1 0 0 1 8800 0)">
			<stop  offset="0" style="stop-color:#2B0F5A"/>
			<stop  offset="1" style="stop-color:#44157D"/>
		</linearGradient>
		<path style="fill:url(#SVGID_00000147200164801091502310000000338585639980671875_);" d="M800,208.5L755.5,225
			C711,241.5,622,274.5,533.201,285.2c-88.9,10.601-177.5-1-266.4-4.5C178,277.2,89,281.801,44.5,284.2L0,286.5v106h44.5
			c44.5,0,133.5,0,222.301,0c88.9,0,177.5,0,266.4,0c88.799,0,177.799,0,222.299,0H800V208.5z"/>
		
			<linearGradient id="SVGID_00000173156348497419302010000002209760547717933486_" gradientUnits="userSpaceOnUse" x1="-7600" y1="409.5" x2="-7600" y2="260.5" gradientTransform="matrix(1 0 0 1 8000 0)">
			<stop  offset="0" style="stop-color:#42166D"/>
			<stop  offset="1" style="stop-color:#7440AE"/>
		</linearGradient>
		<path style="fill:url(#SVGID_00000173156348497419302010000002209760547717933486_);" d="M0,316.5l44.5-11.3
			c44.5-11.399,133.5-34,222.299-31.7c88.9,2.301,177.5,29.7,266.4,31.7C622,307.2,711,283.801,755.5,272.2l44.5-11.7v149h-44.5
			c-44.5,0-133.5,0-222.301,0c-88.9,0-177.5,0-266.4,0c-88.799,0-177.799,0-222.299,0H0V316.5z"/>
		<path style="fill:#F1E7FF;" d="M593.613,323.494c-116.186,0-237.912,26.298-326.813,40.873C178,378.793,89,383.9,44.5,386.306
			L0,388.859v42.071h44.5c44.5,0,133.5,0,222.301,0c88.9,0,177.5,0,266.4,0c88.799,0,177.799,0,222.299,0H800v-61.604
			C673.5,323.494,593.613,323.494,593.613,323.494z"/>
	</g>
</g>
<g id="Layer_1">
</g>
</svg>
